<svg width="382" height="343" viewBox="0 0 382 343" fill="none" xmlns="http://www.w3.org/2000/svg">
<g filter="url(#filter0_d_36_95)">
<path fill-rule="evenodd" clip-rule="evenodd" d="M8.74339 214.456L8.27071 212.64L7.82662 210.817L7.41184 208.987L7.02718 207.15L6.67337 205.307L6.35148 203.457L6.06234 201.602L5.80711 199.74L5.58687 197.873L5.40279 196L5.25597 194.123L5.14764 192.241L5.07908 190.355L5.05143 188.466L5.06599 186.573L5.12397 184.679L5.22654 182.782L5.3749 180.885L5.57013 178.987L5.81338 177.09L6.10564 175.194L6.44794 173.301L6.84115 171.411L7.28607 169.525L7.78344 167.645L8.33393 165.771L8.93804 163.904L9.59631 162.047L10.3089 160.199L11.0762 158.362L11.8981 156.538L12.7747 154.728L13.7056 152.932L14.6907 151.152L15.7295 149.39L16.8213 147.646L17.9653 145.922L19.1606 144.219L20.4063 142.538L21.701 140.88L23.0434 139.247L24.4319 137.639L25.8648 136.056L27.3405 134.501L28.8568 132.973L30.4116 131.474L32.003 130.004L33.6285 128.564L35.2861 127.153L36.9734 125.773L38.6879 124.424L40.4273 123.105L42.1892 121.817L43.9711 120.56L45.7705 119.333L47.5851 118.137L49.4122 116.972L51.2495 115.836L53.0947 114.729L54.9451 113.651L56.7985 112.6L58.6526 111.577L60.505 110.58L62.3537 109.609L64.1965 108.662L66.0312 107.738L67.856 106.836L69.6689 105.955L71.4681 105.094L73.252 104.251L75.0188 103.424L76.7673 102.613L78.4959 101.816L80.2034 101.031L81.8887 100.257L83.5508 99.4916L85.1888 98.7342L86.8019 97.9827L88.3896 97.2357L89.9512 96.4914L91.4865 95.7484L92.9952 95.005L94.4773 94.2598L95.9326 93.5111L97.3615 92.7577L98.7641 91.9979L100.141 91.2305L101.492 90.4541L102.819 89.6675L104.122 88.8695L105.402 88.059L106.659 87.2349L107.896 86.3965L109.113 85.5428L110.311 84.673L111.492 83.7867L112.658 82.8832L113.809 81.962L114.947 81.023L116.074 80.0658L117.191 79.0903L118.301 78.0966L119.404 77.0846L120.503 76.0547L121.599 75.0071L122.693 73.9422L123.789 72.8606L124.886 71.7626L125.987 70.6491L127.094 69.5207L128.208 68.3783L129.33 67.2228L130.462 66.0551L131.606 64.8762L132.763 63.6872L133.933 62.489L135.119 61.283L136.321 60.0702L137.541 58.8517L138.779 57.6288L140.037 56.4026L141.314 55.1743L142.613 53.945L143.933 52.7158L145.276 51.4878L146.641 50.2621L148.029 49.0396L149.44 47.8212L150.876 46.6078L152.335 45.4001L153.819 44.1989L155.326 43.0046L156.858 41.818L158.414 40.6395L159.995 39.4698L161.6 38.3092L163.23 37.1582L164.884 36.0173L166.562 34.887L168.264 33.7677L169.991 32.6596L171.742 31.5633L173.516 30.4789L175.315 29.407L177.137 28.3478L178.983 27.3015L180.853 26.2686L182.746 25.2492L184.663 24.2438L186.602 23.2525L188.565 22.2756L190.551 21.3135L192.559 20.3664L194.591 19.4347L196.644 18.5186L198.721 17.6185L200.819 16.7347L202.94 15.8676L205.083 15.0176L207.247 14.1851L209.434 13.3704L211.641 12.5742L213.87 11.7968L216.12 11.0388L218.39 10.3006L220.681 9.58296L222.992 8.88635L225.323 8.21146L227.673 7.55891L230.043 6.92943L232.431 6.3237L234.837 5.74249L237.261 5.18656L239.702 4.65669L242.159 4.15382L244.632 3.67882L247.121 3.2328L249.623 2.81689L252.139 2.43231L254.668 2.08033L257.207 1.76228L259.756 1.47958L262.315 1.23359L264.88 1.02582L267.451 0.857676L270.027 0.730631L272.605 0.646132L275.184 0.60559L277.762 0.610435L280.337 0.662016L282.908 0.761649L285.471 0.9106L288.026 1.11006L290.57 1.36112L293.1 1.66482L295.616 2.02215L298.113 2.43393L300.591 2.90093L303.047 3.42374L305.479 4.00294L307.884 4.63894L310.26 5.33198L312.606 6.08232L314.918 6.88991L317.196 7.75478L319.436 8.67671L321.638 9.65532L323.798 10.6902L325.916 11.7809L327.99 12.9265L330.017 14.1264L331.997 15.3797L333.927 16.6853L335.807 18.0421L337.636 19.4489L339.411 20.9045L341.133 22.4074L342.801 23.9563L344.412 25.5495L345.968 27.1856L347.468 28.8627L348.91 30.579L350.296 32.3328L351.624 34.1222L352.896 35.9452L354.111 37.7997L355.271 39.6839L356.375 41.5955L357.424 43.5327L358.42 45.4932L359.363 47.4751L360.255 49.4764L361.097 51.4948L361.89 53.5285L362.636 55.5756L363.337 57.634L363.994 59.702L364.61 61.7777L365.186 63.8593L365.724 65.9454L366.226 68.0341L366.695 70.1241L367.132 72.214L367.54 74.3024L367.922 76.3881L368.278 78.47L368.612 80.5471L368.926 82.6185L369.222 84.6834L369.501 86.7411L369.767 88.7911L370.021 90.8328L370.265 92.8658L370.502 94.8901L370.732 96.9052L370.958 98.9113L371.181 100.908L371.402 102.897L371.624 104.876L371.847 106.847L372.073 108.81L372.302 110.766L372.535 112.715L372.773 114.657L373.016 116.594L373.263 118.526L373.514 120.454L373.77 122.379L374.029 124.302L374.29 126.223L374.552 128.144L374.815 130.065L375.076 131.986L375.334 133.91L375.587 135.837L375.834 137.766L376.072 139.699L376.299 141.637L376.514 143.579L376.713 145.526L376.896 147.479L377.058 149.437L377.198 151.401L377.314 153.371L377.403 155.346L377.462 157.327L377.491 159.312L377.485 161.302L377.444 163.297L377.364 165.295L377.245 167.296L377.084 169.299L376.879 171.304L376.629 173.309L376.332 175.314L375.987 177.317L375.593 179.318L375.148 181.315L374.653 183.308L374.106 185.295L373.508 187.275L372.857 189.247L372.154 191.21L371.399 193.162L370.592 195.103L369.735 197.031L368.827 198.946L367.869 200.847L366.863 202.731L365.809 204.6L364.709 206.451L363.563 208.283L362.373 210.097L361.141 211.892L359.866 213.666L358.552 215.419L357.2 217.151L355.811 218.861L354.386 220.549L352.928 222.214L351.439 223.856L349.919 225.476L348.37 227.073L346.795 228.646L345.195 230.196L343.572 231.724L341.927 233.228L340.262 234.71L338.578 236.169L336.878 237.606L335.163 239.022L333.434 240.416L331.693 241.79L329.94 243.143L328.178 244.476L326.408 245.79L324.631 247.085L322.847 248.362L321.059 249.622L319.267 250.865L317.471 252.092L315.673 253.303L313.873 254.5L312.073 255.683L310.272 256.852L308.471 258.008L306.67 259.152L304.871 260.284L303.072 261.405L301.276 262.516L299.481 263.618L297.688 264.71L295.897 265.795L294.109 266.872L292.325 267.943L290.543 269.009L288.764 270.069L286.988 271.125L285.216 272.179L283.447 273.23L281.68 274.279L279.917 275.327L278.157 276.376L276.398 277.425L274.642 278.475L272.888 279.527L271.135 280.582L269.383 281.641L267.631 282.702L265.879 283.768L264.126 284.839L262.371 285.914L260.614 286.994L258.853 288.08L257.089 289.171L255.321 290.268L253.546 291.37L251.766 292.478L249.978 293.591L248.182 294.709L246.377 295.832L244.562 296.959L242.736 298.09L240.899 299.224L239.049 300.361L237.186 301.501L235.309 302.641L233.417 303.782L231.509 304.922L229.584 306.061L227.643 307.197L225.684 308.33L223.706 309.457L221.71 310.578L219.695 311.692L217.659 312.796L215.604 313.891L213.528 314.973L211.432 316.042L209.315 317.097L207.177 318.135L205.018 319.155L202.839 320.155L200.64 321.135L198.42 322.092L196.18 323.024L193.921 323.931L191.643 324.81L189.346 325.66L187.031 326.479L184.7 327.267L182.352 328.02L179.988 328.739L177.61 329.42L175.218 330.064L172.814 330.668L170.398 331.232L167.972 331.753L165.537 332.232L163.095 332.665L160.645 333.054L158.191 333.395L155.733 333.69L153.273 333.935L150.812 334.132L148.352 334.278L145.894 334.374L143.44 334.418L140.992 334.411L138.551 334.351L136.118 334.239L133.695 334.074L131.284 333.855L128.887 333.584L126.505 333.259L124.139 332.881L121.791 332.45L119.462 331.967L117.154 331.432L114.868 330.846L112.605 330.211L110.366 329.526L108.152 328.793L105.964 328.013L103.804 327.187L101.671 326.318L99.566 325.405L97.4901 324.451L95.4437 323.457L93.4268 322.425L91.44 321.357L89.4832 320.253L87.5567 319.115L85.6604 317.946L83.7942 316.746L81.9579 315.518L80.1515 314.264L78.3744 312.983L76.6264 311.679L74.9071 310.353L73.2158 309.006L71.5522 307.639L69.9156 306.255L68.3055 304.854L66.7211 303.438L65.1617 302.008L63.6268 300.565L62.1156 299.11L60.6274 297.644L59.1615 296.168L57.7171 294.683L56.2937 293.19L54.8905 291.69L53.507 290.182L52.1426 288.668L50.7966 287.148L49.4687 285.622L48.1583 284.091L46.8652 282.555L45.589 281.013L44.3292 279.467L43.0858 277.917L41.8583 276.361L40.6467 274.801L39.4507 273.236L38.2703 271.667L37.1053 270.093L35.9557 268.513L34.8216 266.929L33.7029 265.34L32.5997 263.745L31.5121 262.145L30.4404 260.539L29.3846 258.927L28.3451 257.309L27.3219 255.685L26.3156 254.055L25.3262 252.418L24.3543 250.773L23.4 249.122L22.464 247.464L21.5464 245.798L20.6478 244.125L19.7686 242.444L18.9092 240.755L18.0703 239.059L17.2521 237.354L16.4553 235.642L15.6802 233.921L14.9275 232.192L14.1977 230.454L13.4912 228.709L12.8086 226.955L12.1505 225.193L11.5172 223.424L10.9095 221.646L10.3277 219.86L9.77239 218.066L9.24412 216.265L8.74339 214.456Z" fill="#C86B85" shape-rendering="crispEdges"/>
<path fill-rule="evenodd" clip-rule="evenodd" d="M8.74339 214.456L8.27071 212.64L7.82662 210.817L7.41184 208.987L7.02718 207.15L6.67337 205.307L6.35148 203.457L6.06234 201.602L5.80711 199.74L5.58687 197.873L5.40279 196L5.25597 194.123L5.14764 192.241L5.07908 190.355L5.05143 188.466L5.06599 186.573L5.12397 184.679L5.22654 182.782L5.3749 180.885L5.57013 178.987L5.81338 177.09L6.10564 175.194L6.44794 173.301L6.84115 171.411L7.28607 169.525L7.78344 167.645L8.33393 165.771L8.93804 163.904L9.59631 162.047L10.3089 160.199L11.0762 158.362L11.8981 156.538L12.7747 154.728L13.7056 152.932L14.6907 151.152L15.7295 149.39L16.8213 147.646L17.9653 145.922L19.1606 144.219L20.4063 142.538L21.701 140.88L23.0434 139.247L24.4319 137.639L25.8648 136.056L27.3405 134.501L28.8568 132.973L30.4116 131.474L32.003 130.004L33.6285 128.564L35.2861 127.153L36.9734 125.773L38.6879 124.424L40.4273 123.105L42.1892 121.817L43.9711 120.56L45.7705 119.333L47.5851 118.137L49.4122 116.972L51.2495 115.836L53.0947 114.729L54.9451 113.651L56.7985 112.6L58.6526 111.577L60.505 110.58L62.3537 109.609L64.1965 108.662L66.0312 107.738L67.856 106.836L69.6689 105.955L71.4681 105.094L73.252 104.251L75.0188 103.424L76.7673 102.613L78.4959 101.816L80.2034 101.031L81.8887 100.257L83.5508 99.4916L85.1888 98.7342L86.8019 97.9827L88.3896 97.2357L89.9512 96.4914L91.4865 95.7484L92.9952 95.005L94.4773 94.2598L95.9326 93.5111L97.3615 92.7577L98.7641 91.9979L100.141 91.2305L101.492 90.4541L102.819 89.6675L104.122 88.8695L105.402 88.059L106.659 87.2349L107.896 86.3965L109.113 85.5428L110.311 84.673L111.492 83.7867L112.658 82.8832L113.809 81.962L114.947 81.023L116.074 80.0658L117.191 79.0903L118.301 78.0966L119.404 77.0846L120.503 76.0547L121.599 75.0071L122.693 73.9422L123.789 72.8606L124.886 71.7626L125.987 70.6491L127.094 69.5207L128.208 68.3783L129.33 67.2228L130.462 66.0551L131.606 64.8762L132.763 63.6872L133.933 62.489L135.119 61.283L136.321 60.0702L137.541 58.8517L138.779 57.6288L140.037 56.4026L141.314 55.1743L142.613 53.945L143.933 52.7158L145.276 51.4878L146.641 50.2621L148.029 49.0396L149.44 47.8212L150.876 46.6078L152.335 45.4001L153.819 44.1989L155.326 43.0046L156.858 41.818L158.414 40.6395L159.995 39.4698L161.6 38.3092L163.23 37.1582L164.884 36.0173L166.562 34.887L168.264 33.7677L169.991 32.6596L171.742 31.5633L173.516 30.4789L175.315 29.407L177.137 28.3478L178.983 27.3015L180.853 26.2686L182.746 25.2492L184.663 24.2438L186.602 23.2525L188.565 22.2756L190.551 21.3135L192.559 20.3664L194.591 19.4347L196.644 18.5186L198.721 17.6185L200.819 16.7347L202.94 15.8676L205.083 15.0176L207.247 14.1851L209.434 13.3704L211.641 12.5742L213.87 11.7968L216.12 11.0388L218.39 10.3006L220.681 9.58296L222.992 8.88635L225.323 8.21146L227.673 7.55891L230.043 6.92943L232.431 6.3237L234.837 5.74249L237.261 5.18656L239.702 4.65669L242.159 4.15382L244.632 3.67882L247.121 3.2328L249.623 2.81689L252.139 2.43231L254.668 2.08033L257.207 1.76228L259.756 1.47958L262.315 1.23359L264.88 1.02582L267.451 0.857676L270.027 0.730631L272.605 0.646132L275.184 0.60559L277.762 0.610435L280.337 0.662016L282.908 0.761649L285.471 0.9106L288.026 1.11006L290.57 1.36112L293.1 1.66482L295.616 2.02215L298.113 2.43393L300.591 2.90093L303.047 3.42374L305.479 4.00294L307.884 4.63894L310.26 5.33198L312.606 6.08232L314.918 6.88991L317.196 7.75478L319.436 8.67671L321.638 9.65532L323.798 10.6902L325.916 11.7809L327.99 12.9265L330.017 14.1264L331.997 15.3797L333.927 16.6853L335.807 18.0421L337.636 19.4489L339.411 20.9045L341.133 22.4074L342.801 23.9563L344.412 25.5495L345.968 27.1856L347.468 28.8627L348.91 30.579L350.296 32.3328L351.624 34.1222L352.896 35.9452L354.111 37.7997L355.271 39.6839L356.375 41.5955L357.424 43.5327L358.42 45.4932L359.363 47.4751L360.255 49.4764L361.097 51.4948L361.89 53.5285L362.636 55.5756L363.337 57.634L363.994 59.702L364.61 61.7777L365.186 63.8593L365.724 65.9454L366.226 68.0341L366.695 70.1241L367.132 72.214L367.54 74.3024L367.922 76.3881L368.278 78.47L368.612 80.5471L368.926 82.6185L369.222 84.6834L369.501 86.7411L369.767 88.7911L370.021 90.8328L370.265 92.8658L370.502 94.8901L370.732 96.9052L370.958 98.9113L371.181 100.908L371.402 102.897L371.624 104.876L371.847 106.847L372.073 108.81L372.302 110.766L372.535 112.715L372.773 114.657L373.016 116.594L373.263 118.526L373.514 120.454L373.77 122.379L374.029 124.302L374.29 126.223L374.552 128.144L374.815 130.065L375.076 131.986L375.334 133.91L375.587 135.837L375.834 137.766L376.072 139.699L376.299 141.637L376.514 143.579L376.713 145.526L376.896 147.479L377.058 149.437L377.198 151.401L377.314 153.371L377.403 155.346L377.462 157.327L377.491 159.312L377.485 161.302L377.444 163.297L377.364 165.295L377.245 167.296L377.084 169.299L376.879 171.304L376.629 173.309L376.332 175.314L375.987 177.317L375.593 179.318L375.148 181.315L374.653 183.308L374.106 185.295L373.508 187.275L372.857 189.247L372.154 191.21L371.399 193.162L370.592 195.103L369.735 197.031L368.827 198.946L367.869 200.847L366.863 202.731L365.809 204.6L364.709 206.451L363.563 208.283L362.373 210.097L361.141 211.892L359.866 213.666L358.552 215.419L357.2 217.151L355.811 218.861L354.386 220.549L352.928 222.214L351.439 223.856L349.919 225.476L348.37 227.073L346.795 228.646L345.195 230.196L343.572 231.724L341.927 233.228L340.262 234.71L338.578 236.169L336.878 237.606L335.163 239.022L333.434 240.416L331.693 241.79L329.94 243.143L328.178 244.476L326.408 245.79L324.631 247.085L322.847 248.362L321.059 249.622L319.267 250.865L317.471 252.092L315.673 253.303L313.873 254.5L312.073 255.683L310.272 256.852L308.471 258.008L306.67 259.152L304.871 260.284L303.072 261.405L301.276 262.516L299.481 263.618L297.688 264.71L295.897 265.795L294.109 266.872L292.325 267.943L290.543 269.009L288.764 270.069L286.988 271.125L285.216 272.179L283.447 273.23L281.68 274.279L279.917 275.327L278.157 276.376L276.398 277.425L274.642 278.475L272.888 279.527L271.135 280.582L269.383 281.641L267.631 282.702L265.879 283.768L264.126 284.839L262.371 285.914L260.614 286.994L258.853 288.08L257.089 289.171L255.321 290.268L253.546 291.37L251.766 292.478L249.978 293.591L248.182 294.709L246.377 295.832L244.562 296.959L242.736 298.09L240.899 299.224L239.049 300.361L237.186 301.501L235.309 302.641L233.417 303.782L231.509 304.922L229.584 306.061L227.643 307.197L225.684 308.33L223.706 309.457L221.71 310.578L219.695 311.692L217.659 312.796L215.604 313.891L213.528 314.973L211.432 316.042L209.315 317.097L207.177 318.135L205.018 319.155L202.839 320.155L200.64 321.135L198.42 322.092L196.18 323.024L193.921 323.931L191.643 324.81L189.346 325.66L187.031 326.479L184.7 327.267L182.352 328.02L179.988 328.739L177.61 329.42L175.218 330.064L172.814 330.668L170.398 331.232L167.972 331.753L165.537 332.232L163.095 332.665L160.645 333.054L158.191 333.395L155.733 333.69L153.273 333.935L150.812 334.132L148.352 334.278L145.894 334.374L143.44 334.418L140.992 334.411L138.551 334.351L136.118 334.239L133.695 334.074L131.284 333.855L128.887 333.584L126.505 333.259L124.139 332.881L121.791 332.45L119.462 331.967L117.154 331.432L114.868 330.846L112.605 330.211L110.366 329.526L108.152 328.793L105.964 328.013L103.804 327.187L101.671 326.318L99.566 325.405L97.4901 324.451L95.4437 323.457L93.4268 322.425L91.44 321.357L89.4832 320.253L87.5567 319.115L85.6604 317.946L83.7942 316.746L81.9579 315.518L80.1515 314.264L78.3744 312.983L76.6264 311.679L74.9071 310.353L73.2158 309.006L71.5522 307.639L69.9156 306.255L68.3055 304.854L66.7211 303.438L65.1617 302.008L63.6268 300.565L62.1156 299.11L60.6274 297.644L59.1615 296.168L57.7171 294.683L56.2937 293.19L54.8905 291.69L53.507 290.182L52.1426 288.668L50.7966 287.148L49.4687 285.622L48.1583 284.091L46.8652 282.555L45.589 281.013L44.3292 279.467L43.0858 277.917L41.8583 276.361L40.6467 274.801L39.4507 273.236L38.2703 271.667L37.1053 270.093L35.9557 268.513L34.8216 266.929L33.7029 265.34L32.5997 263.745L31.5121 262.145L30.4404 260.539L29.3846 258.927L28.3451 257.309L27.3219 255.685L26.3156 254.055L25.3262 252.418L24.3543 250.773L23.4 249.122L22.464 247.464L21.5464 245.798L20.6478 244.125L19.7686 242.444L18.9092 240.755L18.0703 239.059L17.2521 237.354L16.4553 235.642L15.6802 233.921L14.9275 232.192L14.1977 230.454L13.4912 228.709L12.8086 226.955L12.1505 225.193L11.5172 223.424L10.9095 221.646L10.3277 219.86L9.77239 218.066L9.24412 216.265L8.74339 214.456Z" stroke="black" stroke-opacity="0.3" shape-rendering="crispEdges"/>
</g>
<defs>
<filter id="filter0_d_36_95" x="0.55127" y="0.10553" width="381.439" height="342.813" filterUnits="userSpaceOnUse" color-interpolation-filters="sRGB">
<feFlood flood-opacity="0" result="BackgroundImageFix"/>
<feColorMatrix in="SourceAlpha" type="matrix" values="0 0 0 0 0 0 0 0 0 0 0 0 0 0 0 0 0 0 127 0" result="hardAlpha"/>
<feOffset dy="4"/>
<feGaussianBlur stdDeviation="2"/>
<feComposite in2="hardAlpha" operator="out"/>
<feColorMatrix type="matrix" values="0 0 0 0 0 0 0 0 0 0 0 0 0 0 0 0 0 0 0.25 0"/>
<feBlend mode="normal" in2="BackgroundImageFix" result="effect1_dropShadow_36_95"/>
<feBlend mode="normal" in="SourceGraphic" in2="effect1_dropShadow_36_95" result="shape"/>
</filter>
</defs>
</svg>
