<svg width="40" height="30" viewBox="0 0 40 30" fill="none" xmlns="http://www.w3.org/2000/svg">
<path d="M2.73092 29.989H9.10308V14.5811L0 7.73315V27.2606C0 28.7585 1.23159 29.989 2.73092 29.989Z" fill="#4285F4"/>
<path d="M30.8967 29.989H37.2689C38.7682 29.989 39.9998 28.7585 39.9998 27.2606V7.73315L30.8967 14.5276" fill="#34A853"/>
<path d="M30.8967 2.75779V14.5812L39.9998 7.78676V4.09528C39.9998 0.724797 36.1444 -1.20119 33.467 0.831797" fill="#FBBC04"/>
<path d="M9.10327 14.5813V2.75781L20.027 10.9433L30.8971 2.75781V14.5813L19.9734 22.7132" fill="#EA4335"/>
<path d="M0 4.09538V7.73336L9.10308 14.5278V2.75789L6.5328 0.831897C3.85542 -1.14759 0 0.778397 0 4.09538Z" fill="#C5221F"/>
</svg>
