<svg width="40" height="41" viewBox="0 0 40 41" fill="none" xmlns="http://www.w3.org/2000/svg">
<path d="M20.0065 0.989258C11.6567 0.989258 9.2147 0.997875 8.74003 1.03726C7.02651 1.17973 5.96026 1.4496 4.79861 2.0281C3.90341 2.47277 3.19738 2.98819 2.50058 3.71071C1.2316 5.02836 0.462512 6.64942 0.184097 8.57636C0.0487445 9.51182 0.00936147 9.7026 0.00136399 14.4809C-0.00170499 16.0736 0.00136399 18.1698 0.00136399 20.9814C0.00136399 29.3267 0.010586 31.7669 0.0505885 32.2408C0.189025 33.9087 0.450508 34.958 1.00425 36.1058C2.06252 38.3029 4.08366 39.9522 6.46477 40.5677C7.28923 40.78 8.19983 40.8969 9.36883 40.9523C9.86413 40.9739 14.9124 40.9892 19.9638 40.9892C25.0151 40.9892 30.0665 40.9831 30.5495 40.9585C31.9031 40.8948 32.6891 40.7892 33.5581 40.5646C35.9546 39.9461 37.9389 38.3213 39.0186 36.0934C39.5616 34.9733 39.837 33.884 39.9616 32.3033C39.9886 31.9586 40 26.4637 40 20.9762C40 15.4877 39.9877 10.0029 39.9606 9.65828C39.8345 8.052 39.5592 6.97192 38.9987 5.83027C38.5387 4.89573 38.0281 4.19782 37.2867 3.48424C35.9635 2.22013 34.3454 1.45083 32.4171 1.17266C31.4828 1.03756 31.2967 0.997558 26.5161 0.989258H20.0065Z" fill="url(#paint0_radial_324_165)"/>
<path d="M20.0065 0.989258C11.6567 0.989258 9.2147 0.997875 8.74003 1.03726C7.02651 1.17973 5.96026 1.4496 4.79861 2.0281C3.90341 2.47277 3.19738 2.98819 2.50058 3.71071C1.2316 5.02836 0.462512 6.64942 0.184097 8.57636C0.0487445 9.51182 0.00936147 9.7026 0.00136399 14.4809C-0.00170499 16.0736 0.00136399 18.1698 0.00136399 20.9814C0.00136399 29.3267 0.010586 31.7669 0.0505885 32.2408C0.189025 33.9087 0.450508 34.958 1.00425 36.1058C2.06252 38.3029 4.08366 39.9522 6.46477 40.5677C7.28923 40.78 8.19983 40.8969 9.36883 40.9523C9.86413 40.9739 14.9124 40.9892 19.9638 40.9892C25.0151 40.9892 30.0665 40.9831 30.5495 40.9585C31.9031 40.8948 32.6891 40.7892 33.5581 40.5646C35.9546 39.9461 37.9389 38.3213 39.0186 36.0934C39.5616 34.9733 39.837 33.884 39.9616 32.3033C39.9886 31.9586 40 26.4637 40 20.9762C40 15.4877 39.9877 10.0029 39.9606 9.65828C39.8345 8.052 39.5592 6.97192 38.9987 5.83027C38.5387 4.89573 38.0281 4.19782 37.2867 3.48424C35.9635 2.22013 34.3454 1.45083 32.4171 1.17266C31.4828 1.03756 31.2967 0.997558 26.5161 0.989258H20.0065Z" fill="url(#paint1_radial_324_165)"/>
<path d="M20.0065 0.989258C11.6567 0.989258 9.2147 0.997875 8.74003 1.03726C7.02651 1.17973 5.96026 1.4496 4.79861 2.0281C3.90341 2.47277 3.19738 2.98819 2.50058 3.71071C1.2316 5.02836 0.462512 6.64942 0.184097 8.57636C0.0487445 9.51182 0.00936147 9.7026 0.00136399 14.4809C-0.00170499 16.0736 0.00136399 18.1698 0.00136399 20.9814C0.00136399 29.3267 0.010586 31.7669 0.0505885 32.2408C0.189025 33.9087 0.450508 34.958 1.00425 36.1058C2.06252 38.3029 4.08366 39.9522 6.46477 40.5677C7.28923 40.78 8.19983 40.8969 9.36883 40.9523C9.86413 40.9739 14.9124 40.9892 19.9638 40.9892C25.0151 40.9892 30.0665 40.9831 30.5495 40.9585C31.9031 40.8948 32.6891 40.7892 33.5581 40.5646C35.9546 39.9461 37.9389 38.3213 39.0186 36.0934C39.5616 34.9733 39.837 33.884 39.9616 32.3033C39.9886 31.9586 40 26.4637 40 20.9762C40 15.4877 39.9877 10.0029 39.9606 9.65828C39.8345 8.052 39.5592 6.97192 38.9987 5.83027C38.5387 4.89573 38.0281 4.19782 37.2867 3.48424C35.9635 2.22013 34.3454 1.45083 32.4171 1.17266C31.4828 1.03756 31.2967 0.997558 26.5161 0.989258H20.0065Z" fill="url(#paint2_radial_324_165)"/>
<path d="M20.0065 0.989258C11.6567 0.989258 9.2147 0.997875 8.74003 1.03726C7.02651 1.17973 5.96026 1.4496 4.79861 2.0281C3.90341 2.47277 3.19738 2.98819 2.50058 3.71071C1.2316 5.02836 0.462512 6.64942 0.184097 8.57636C0.0487445 9.51182 0.00936147 9.7026 0.00136399 14.4809C-0.00170499 16.0736 0.00136399 18.1698 0.00136399 20.9814C0.00136399 29.3267 0.010586 31.7669 0.0505885 32.2408C0.189025 33.9087 0.450508 34.958 1.00425 36.1058C2.06252 38.3029 4.08366 39.9522 6.46477 40.5677C7.28923 40.78 8.19983 40.8969 9.36883 40.9523C9.86413 40.9739 14.9124 40.9892 19.9638 40.9892C25.0151 40.9892 30.0665 40.9831 30.5495 40.9585C31.9031 40.8948 32.6891 40.7892 33.5581 40.5646C35.9546 39.9461 37.9389 38.3213 39.0186 36.0934C39.5616 34.9733 39.837 33.884 39.9616 32.3033C39.9886 31.9586 40 26.4637 40 20.9762C40 15.4877 39.9877 10.0029 39.9606 9.65828C39.8345 8.052 39.5592 6.97192 38.9987 5.83027C38.5387 4.89573 38.0281 4.19782 37.2867 3.48424C35.9635 2.22013 34.3454 1.45083 32.4171 1.17266C31.4828 1.03756 31.2967 0.997558 26.5161 0.989258H20.0065Z" fill="url(#paint3_radial_324_165)"/>
<path d="M20.0081 6.12524C15.969 6.12524 15.4621 6.14289 13.8757 6.21503C12.2924 6.28748 11.2117 6.53795 10.2661 6.90547C9.28792 7.28505 8.45816 7.7928 7.63152 8.61914C6.80426 9.4452 6.29611 10.2743 5.91501 11.2514C5.54629 12.1967 5.29532 13.2769 5.22407 14.8584C5.15312 16.4436 5.13452 16.9504 5.13452 20.9865C5.13452 25.0226 5.1525 25.5275 5.22437 27.1127C5.29719 28.6948 5.54785 29.7748 5.91531 30.7197C6.29549 31.6971 6.80362 32.5263 7.63058 33.3523C8.45694 34.179 9.28668 34.688 10.2642 35.0675C11.2105 35.435 12.2915 35.6855 13.8745 35.758C15.4609 35.8301 15.9674 35.8477 20.0062 35.8477C24.0456 35.8477 24.5509 35.8301 26.1373 35.758C27.7206 35.6855 28.8025 35.435 29.7488 35.0675C30.7266 34.688 31.5552 34.179 32.3815 33.3523C33.2088 32.5263 33.7169 31.6971 34.098 30.72C34.4636 29.7748 34.7146 28.6945 34.789 27.1131C34.8602 25.5279 34.8788 25.0226 34.8788 20.9865C34.8788 16.9504 34.8602 16.4439 34.789 14.8587C34.7146 13.2766 34.4636 12.1967 34.098 11.2518C33.7169 10.2743 33.2088 9.44518 32.3815 8.61914C31.5542 7.79248 30.7269 7.28473 29.7479 6.90546C28.7997 6.53795 27.7184 6.28748 26.1351 6.21503C24.5487 6.14289 24.0437 6.12524 20.0034 6.12524H20.0081ZM18.6739 8.80337C19.0699 8.80275 19.5117 8.80337 20.0081 8.80337C23.979 8.80337 24.4496 8.81761 26.0177 8.88882C27.4678 8.95508 28.2547 9.19718 28.779 9.4006C29.473 9.66996 29.9678 9.99196 30.4881 10.5121C31.0086 11.0322 31.3308 11.5276 31.601 12.2211C31.8046 12.7444 32.0472 13.5308 32.1132 14.9798C32.1844 16.5464 32.1999 17.017 32.1999 20.9831C32.1999 24.9492 32.1844 25.4198 32.1132 26.9864C32.0469 28.4354 31.8046 29.2218 31.601 29.745C31.3315 30.4386 31.0086 30.9324 30.4881 31.4522C29.9675 31.9724 29.4733 32.2944 28.779 32.5637C28.2554 32.7681 27.4678 33.0096 26.0177 33.0758C24.4499 33.147 23.979 33.1625 20.0081 33.1625C16.0368 33.1625 15.5662 33.147 13.9984 33.0758C12.5484 33.009 11.7614 32.7668 11.2368 32.5634C10.5428 32.2941 10.047 31.9721 9.5265 31.4519C9.00597 30.9318 8.68374 30.4376 8.41355 29.7438C8.20998 29.2206 7.96738 28.4341 7.90139 26.9852C7.83013 25.4186 7.81587 24.948 7.81587 20.9794C7.81587 17.0108 7.83013 16.5427 7.90139 14.9761C7.9677 13.5271 8.20998 12.7407 8.41355 12.2168C8.6831 11.5233 9.00597 11.0279 9.5265 10.5078C10.047 9.98762 10.5428 9.66563 11.2368 9.39565C11.7611 9.1913 12.5484 8.94982 13.9984 8.88324C15.3704 8.82132 15.9021 8.80275 18.6739 8.79964L18.6739 8.80337ZM27.9468 11.2709C26.9615 11.2709 26.1621 12.0688 26.1621 13.0537C26.1621 14.0382 26.9615 14.837 27.9468 14.837C28.932 14.837 29.7314 14.0382 29.7314 13.0537C29.7314 12.0691 28.932 11.2703 27.9468 11.2703L27.9468 11.2709ZM20.0081 13.3546C15.7902 13.3546 12.3705 16.7718 12.3705 20.9865C12.3705 25.2012 15.7902 28.6168 20.0081 28.6168C24.2259 28.6168 27.6444 25.2012 27.6444 20.9865C27.6444 16.7718 24.2256 13.3546 20.0078 13.3546H20.0081ZM20.0081 16.0327C22.7458 16.0327 24.9655 18.2505 24.9655 20.9865C24.9655 23.7222 22.7458 25.9402 20.0081 25.9402C17.27 25.9402 15.0506 23.7222 15.0506 20.9865C15.0506 18.2505 17.27 16.0327 20.0081 16.0327Z" fill="white"/>
<defs>
<radialGradient id="paint0_radial_324_165" cx="0" cy="0" r="1" gradientUnits="userSpaceOnUse" gradientTransform="translate(38.7084 19.7378) rotate(164.25) scale(25.5577 18.4131)">
<stop stop-color="#FF005F"/>
<stop offset="1" stop-color="#FC01D8"/>
</radialGradient>
<radialGradient id="paint1_radial_324_165" cx="0" cy="0" r="1" gradientUnits="userSpaceOnUse" gradientTransform="translate(10.6247 44.0701) rotate(-90) scale(31.9287 33.8757)">
<stop stop-color="#FFCC00"/>
<stop offset="0.1242" stop-color="#FFCC00"/>
<stop offset="0.5672" stop-color="#FE4A05"/>
<stop offset="0.6942" stop-color="#FF0F3F"/>
<stop offset="1" stop-color="#FE0657" stop-opacity="0"/>
</radialGradient>
<radialGradient id="paint2_radial_324_165" cx="0" cy="0" r="1" gradientUnits="userSpaceOnUse" gradientTransform="translate(21.0108 40.4251) rotate(-59.8703) scale(13.2028 17.1886)">
<stop stop-color="#FFCC00"/>
<stop offset="1" stop-color="#FFCC00" stop-opacity="0"/>
</radialGradient>
<radialGradient id="paint3_radial_324_165" cx="0" cy="0" r="1" gradientUnits="userSpaceOnUse" gradientTransform="translate(5.42714 2.61805) rotate(164.274) scale(25.2742 8.61091)">
<stop stop-color="#780CFF"/>
<stop offset="1" stop-color="#820BFF" stop-opacity="0"/>
</radialGradient>
</defs>
</svg>
