<svg width="25" height="22" viewBox="0 0 25 22" fill="none" xmlns="http://www.w3.org/2000/svg">
<path d="M13.6229 2.13416L12.6227 3.14058L11.6193 2.13326C9.06122 -0.435158 4.91363 -0.435158 2.3555 2.13326C-0.202647 4.70166 -0.202647 8.86588 2.3555 11.4343L11.9776 21.095C12.3346 21.4534 12.9133 21.4534 13.2703 21.095L22.8998 11.4325C25.4522 8.85561 25.4566 4.70305 22.8981 2.13416C20.3352 -0.438927 16.1857 -0.438927 13.6229 2.13416ZM21.6035 10.1383L12.6239 19.1484L3.64813 10.1365C1.80388 8.2848 1.80388 5.28272 3.64813 3.43108C5.49237 1.57942 8.48248 1.57942 10.3267 3.43108L11.981 5.09204C12.3441 5.45651 12.9348 5.4494 13.2889 5.07632L14.9155 3.43198C16.7644 1.57566 19.7565 1.57566 21.6054 3.43198C23.4501 5.28408 23.447 8.27733 21.6035 10.1383Z" fill="#E10000" fill-opacity="0.5"/>
</svg>
