<svg width="40" height="41" viewBox="0 0 40 41" fill="none" xmlns="http://www.w3.org/2000/svg">
<path d="M34.0819 34.7351H28.1552V25.545C28.1552 23.3535 28.1157 20.5324 25.0726 20.5324C21.9858 20.5324 21.5135 22.9201 21.5135 25.3855V34.7345H15.5867V15.8359H21.2764V18.4186H21.3561C21.9255 17.4546 22.7483 16.6616 23.7368 16.124C24.7254 15.5864 25.8427 15.3244 26.9698 15.3658C32.9768 15.3658 34.0844 19.2781 34.0844 24.3677L34.0819 34.7351ZM8.89938 13.2526C8.21913 13.2527 7.55412 13.0531 6.98845 12.679C6.42278 12.3049 5.98188 11.7731 5.72145 11.1509C5.46102 10.5287 5.39277 9.84394 5.52536 9.18332C5.65795 8.52269 5.98542 7.91583 6.46633 7.43948C6.94725 6.96313 7.56003 6.63868 8.22718 6.50716C8.89433 6.37564 9.58587 6.44295 10.2144 6.7006C10.8429 6.95824 11.3801 7.39463 11.7581 7.9546C12.1362 8.51456 12.338 9.17294 12.3381 9.84649C12.3382 10.2937 12.2493 10.7366 12.0765 11.1498C11.9038 11.563 11.6505 11.9384 11.3312 12.2547C11.0119 12.571 10.6328 12.8219 10.2155 12.9931C9.79826 13.1643 9.35104 13.2525 8.89938 13.2526ZM11.8627 34.7351H5.92983V15.8359H11.8627V34.7351ZM37.0366 0.991956H2.95165C2.17802 0.983312 1.43253 1.27914 0.879067 1.81443C0.325604 2.34971 0.00944177 3.08067 0 3.84668V37.736C0.00911861 38.5023 0.325095 39.2338 0.878539 39.7696C1.43198 40.3055 2.17763 40.6019 2.95165 40.5937H37.0366C37.8122 40.6034 38.5599 40.3078 39.1155 39.772C39.6712 39.2361 39.9893 38.5039 40 37.736V3.84423C39.9889 3.07671 39.6706 2.34492 39.115 1.80964C38.5593 1.27437 37.8118 0.979387 37.0366 0.98951" fill="#0A66C2"/>
</svg>
