<svg width="10" height="11" viewBox="0 0 10 11" fill="none" xmlns="http://www.w3.org/2000/svg">
<path d="M1.42459 1.47419C3.32403 -0.367699 6.40367 -0.367699 8.30311 1.47419C10.2026 3.31608 10.2026 6.3024 8.30311 8.14428L7.64006 8.78014C7.15135 9.24522 6.51729 9.84322 5.73755 10.5742C5.25034 11.031 4.47736 11.031 3.99021 10.5741L2.04008 8.73464C1.79499 8.50129 1.58984 8.3045 1.42459 8.14428C-0.474862 6.3024 -0.474862 3.31608 1.42459 1.47419ZM7.71061 2.04871C6.1384 0.524123 3.58929 0.524123 2.01706 2.04871C0.444829 3.5733 0.444829 6.04516 2.01706 7.56973L2.84773 8.36463C3.30517 8.79872 3.88023 9.3406 4.57271 9.99006C4.7351 10.1423 4.99272 10.1424 5.15516 9.99012L7.05153 8.2018C7.31345 7.95247 7.53321 7.74177 7.71061 7.56973C9.28283 6.04516 9.28283 3.5733 7.71061 2.04871ZM4.86385 3.33246C5.78983 3.33246 6.54047 4.06037 6.54047 4.9583C6.54047 5.85622 5.78983 6.58412 4.86385 6.58412C3.93787 6.58412 3.18719 5.85622 3.18719 4.9583C3.18719 4.06037 3.93787 3.33246 4.86385 3.33246ZM4.86385 4.14496C4.40061 4.14496 4.02507 4.5091 4.02507 4.9583C4.02507 5.40751 4.40061 5.77162 4.86385 5.77162C5.3271 5.77162 5.70258 5.40751 5.70258 4.9583C5.70258 4.5091 5.3271 4.14496 4.86385 4.14496Z" fill="#C86B85"/>
</svg>
