<svg width="8" height="9" viewBox="0 0 8 9" fill="none" xmlns="http://www.w3.org/2000/svg">
<path d="M4 0.693021C2.27411 0.693021 0.875 2.25861 0.875 4.18987C0.875 6.1211 2.27411 7.68671 4 7.68671C5.72587 7.68671 7.125 6.1211 7.125 4.18987C7.125 4.01437 7.11346 3.84195 7.09117 3.67341C7.06313 3.46168 7.20162 3.25737 7.39288 3.25737C7.54742 3.25737 7.68292 3.37683 7.70637 3.54775C7.73508 3.7571 7.75 3.97152 7.75 4.18987C7.75 6.50739 6.07108 8.38608 4 8.38608C1.92893 8.38608 0.25 6.50739 0.25 4.18987C0.25 1.87236 1.92893 -0.00634766 4 -0.00634766C4.96046 -0.00634766 5.83654 0.397682 6.5 1.06214V0.57646C6.5 0.383336 6.63992 0.226775 6.8125 0.226775C6.98508 0.226775 7.125 0.383336 7.125 0.57646V1.9752C7.125 2.16832 6.98508 2.32488 6.8125 2.32488H5.5625C5.38992 2.32488 5.25 2.16832 5.25 1.9752C5.25 1.78207 5.38992 1.62551 5.5625 1.62551H6.12462C5.56704 1.04682 4.82046 0.693021 4 0.693021Z" fill="white"/>
</svg>
