<svg width="25" height="25" viewBox="0 0 25 25" fill="none" xmlns="http://www.w3.org/2000/svg">
<path d="M19.9378 0.119141C22.6317 0.119141 24.8155 2.12341 24.8155 4.59581C24.8155 7.06821 22.6317 9.07247 19.9378 9.07247C18.5031 9.07247 17.2131 8.50402 16.3207 7.59913L9.97081 10.9286C10.1147 11.351 10.1922 11.8004 10.1922 12.2662C10.1922 12.7322 10.1147 13.1814 9.97081 13.6038L16.3194 16.9347C17.2118 16.0289 18.5024 15.4599 19.9378 15.4599C22.6317 15.4599 24.8155 17.4642 24.8155 19.9366C24.8155 22.409 22.6317 24.4133 19.9378 24.4133C17.2439 24.4133 15.0601 22.409 15.0601 19.9366C15.0601 19.4708 15.1376 19.0214 15.2815 18.599L8.93303 15.2683C8.04047 16.1739 6.74993 16.7429 5.31458 16.7429C2.62071 16.7429 0.43689 14.7386 0.43689 12.2662C0.43689 9.79377 2.62071 7.78956 5.31458 7.78956C6.74924 7.78956 8.03923 8.35801 8.93175 9.2629L15.2815 5.93341C15.1376 5.51101 15.0601 5.06173 15.0601 4.59581C15.0601 2.12341 17.2439 0.119141 19.9378 0.119141ZM19.9378 17.3775C18.3979 17.3775 17.1494 18.5233 17.1494 19.9366C17.1494 21.35 18.3979 22.4957 19.9378 22.4957C21.4777 22.4957 22.7261 21.35 22.7261 19.9366C22.7261 18.5233 21.4777 17.3775 19.9378 17.3775ZM5.31458 9.70716C3.77464 9.70716 2.52627 10.8529 2.52627 12.2662C2.52627 13.6796 3.77464 14.8253 5.31458 14.8253C6.85451 14.8253 8.10289 13.6796 8.10289 12.2662C8.10289 10.8529 6.85451 9.70716 5.31458 9.70716ZM19.9378 2.03674C18.3979 2.03674 17.1494 3.18248 17.1494 4.59581C17.1494 6.00914 18.3979 7.15487 19.9378 7.15487C21.4777 7.15487 22.7261 6.00914 22.7261 4.59581C22.7261 3.18248 21.4777 2.03674 19.9378 2.03674Z" fill="#212121" fill-opacity="0.5"/>
</svg>
