<svg width="41" height="41" viewBox="0 0 41 41" fill="none" xmlns="http://www.w3.org/2000/svg">
<path d="M0 7.40278C0 3.31433 3.31433 0 7.40278 0H33.5972C37.6856 0 41 3.31433 41 7.40278V33.5972C41 37.6856 37.6856 41 33.5972 41H7.40278C3.31433 41 0 37.6856 0 33.5972V7.40278ZM22.2083 10.8194C22.2083 9.87597 21.4435 9.11111 20.5 9.11111C19.5565 9.11111 18.7917 9.87597 18.7917 10.8194V18.7917H10.8194C9.87597 18.7917 9.11111 19.5565 9.11111 20.5C9.11111 21.4435 9.87597 22.2083 10.8194 22.2083H18.7917V30.1806C18.7917 31.124 19.5565 31.8889 20.5 31.8889C21.4435 31.8889 22.2083 31.124 22.2083 30.1806V22.2083H30.1806C31.124 22.2083 31.8889 21.4435 31.8889 20.5C31.8889 19.5565 31.124 18.7917 30.1806 18.7917H22.2083V10.8194Z" fill="#444444"/>
</svg>
