<svg width="20" height="20" viewBox="0 0 20 20" fill="none" xmlns="http://www.w3.org/2000/svg">
<path d="M5.50007 1.4948C4.67158 1.4948 4 2.16408 4 2.98961C4 3.81514 4.67158 4.48441 5.50007 4.48441C6.32856 4.48441 7.00014 3.81514 7.00014 2.98961C7.00014 2.16408 6.32856 1.4948 5.50007 1.4948ZM2.5 2.98961C2.5 1.33847 3.8432 0 5.50007 0C7.15694 0 8.5001 1.33847 8.5001 2.98961C8.5001 4.64075 7.15694 5.97921 5.50007 5.97921C3.8432 5.97921 2.5 4.64075 2.5 2.98961ZM1.76784 6.97575C0.79149 6.97575 7.72747e-08 7.7645 7.72747e-08 8.73743V9.09558C-9.92273e-06 9.30316 -5.99027e-05 10.4995 0.70086 11.6622C1.24767 12.5691 2.17656 13.3836 3.67527 13.7486C3.8811 13.2014 4.25637 12.7368 4.73742 12.418C3.13355 12.247 2.37565 11.5375 1.98665 10.8923C1.5026 10.0894 1.5 9.2348 1.5 9.09339V8.73743C1.5 8.59004 1.61992 8.47055 1.76784 8.47055H6.03095C6.09841 7.93146 6.27389 7.42579 6.53514 6.97575H1.76784ZM13.465 6.97575C13.7263 7.42579 13.9017 7.93146 13.9692 8.47055H18.2322C18.3801 8.47055 18.5 8.59004 18.5 8.73743V9.09339C18.5 9.2348 18.4974 10.0894 18.0134 10.8923C17.6244 11.5375 16.8664 12.247 15.2626 12.418C15.7436 12.7368 16.1189 13.2014 16.3247 13.7486C17.8234 13.3836 18.7523 12.5691 19.2991 11.6622C20.0001 10.4995 20 9.30316 20 9.09558V8.73743C20 7.7645 19.2085 6.97575 18.2322 6.97575H13.465ZM13 2.98961C13 2.16408 13.6716 1.4948 14.5001 1.4948C15.3286 1.4948 16.0001 2.16408 16.0001 2.98961C16.0001 3.81514 15.3286 4.48441 14.5001 4.48441C13.6716 4.48441 13 3.81514 13 2.98961ZM14.5001 0C12.8432 0 11.5 1.33847 11.5 2.98961C11.5 4.64075 12.8432 5.97921 14.5001 5.97921C16.1569 5.97921 17.5001 4.64075 17.5001 2.98961C17.5001 1.33847 16.1569 0 14.5001 0ZM10.0001 7.47402C9.1716 7.47402 8.5 8.14329 8.5 8.96882C8.5 9.79435 9.1716 10.4636 10.0001 10.4636C10.8286 10.4636 11.5001 9.79435 11.5001 8.96882C11.5001 8.14329 10.8286 7.47402 10.0001 7.47402ZM7 8.96882C7 7.31768 8.3432 5.97921 10.0001 5.97921C11.6569 5.97921 13.0001 7.31768 13.0001 8.96882C13.0001 10.62 11.6569 11.9584 10.0001 11.9584C8.3432 11.9584 7 10.62 7 8.96882ZM4.5 14.7166C4.5 13.7437 5.29149 12.955 6.26784 12.955H13.7322C14.7085 12.955 15.5 13.7437 15.5 14.7166V15.0748C15.5 15.2824 15.5001 16.4787 14.7991 17.6414C14.0578 18.8711 12.614 19.9307 10 19.9307C7.38597 19.9307 5.94224 18.8711 5.20085 17.6414C4.49994 16.4787 4.49999 15.2824 4.5 15.0748V14.7166ZM6.26784 14.4498C6.11992 14.4498 6 14.5693 6 14.7166V15.0726C6 15.214 6.0026 16.0686 6.48665 16.8716C6.93276 17.6115 7.86403 18.4359 10 18.4359C12.136 18.4359 13.0672 17.6115 13.5134 16.8716C13.9974 16.0686 14 15.214 14 15.0726V14.7166C14 14.5693 13.8801 14.4498 13.7322 14.4498H6.26784Z" fill="#212121" fill-opacity="0.8"/>
</svg>
