<svg width="18" height="18" viewBox="0 0 18 18" fill="none" xmlns="http://www.w3.org/2000/svg">
<path opacity="0.8" d="M11.4786 6.60861C12.3484 6.60861 13.0536 7.3483 13.0536 8.26076V11.329H13.05V11.5651C13.05 11.9561 12.7478 12.2731 12.375 12.2731C12.0022 12.2731 11.7 11.9561 11.7 11.5651V9.44087H11.7036V8.26076C11.7036 8.13038 11.6029 8.02474 11.4786 8.02474H6.52674C6.40247 8.02474 6.30174 8.13038 6.30174 8.26076V11.329H6.3V11.5651C6.3 11.9561 5.99779 12.2731 5.625 12.2731C5.25221 12.2731 4.95 11.9561 4.95 11.5651V9.44087H4.95174V8.26076C4.95174 7.3483 5.65689 6.60861 6.52674 6.60861H11.4786ZM16.65 8.26076V11.5651C16.65 11.9561 16.9522 12.2731 17.325 12.2731C17.6978 12.2731 18 11.9561 18 11.5651V8.26076C18 7.3483 17.2948 6.60861 16.425 6.60861L13.3872 6.60772C13.6962 6.99993 13.8975 7.48897 13.9435 8.02493L16.425 8.02474C16.5493 8.02474 16.65 8.13038 16.65 8.26076ZM0 11.5651C0 11.9561 0.302211 12.2731 0.675 12.2731C1.04779 12.2731 1.35 11.9561 1.35 11.5651V8.26076C1.35 8.13038 1.45074 8.02474 1.575 8.02474L4.06181 8.02493C4.10782 7.48897 4.30912 6.99993 4.61815 6.60772L1.575 6.60861C0.70515 6.60861 0 7.3483 0 8.26076V11.5651ZM9 0C10.4912 0 11.7 1.26805 11.7 2.83226C11.7 4.39647 10.4912 5.66452 9 5.66452C7.50879 5.66452 6.3 4.39647 6.3 2.83226C6.3 1.26805 7.50879 0 9 0ZM9 1.41613C8.25444 1.41613 7.65 2.05015 7.65 2.83226C7.65 3.61437 8.25444 4.24839 9 4.24839C9.74556 4.24839 10.35 3.61437 10.35 2.83226C10.35 2.05015 9.74556 1.41613 9 1.41613ZM14.85 0.944087C16.0926 0.944087 17.1 2.00079 17.1 3.3043C17.1 4.60781 16.0926 5.66452 14.85 5.66452C13.6074 5.66452 12.6 4.60781 12.6 3.3043C12.6 2.00079 13.6074 0.944087 14.85 0.944087ZM14.85 2.36022C14.3529 2.36022 13.95 2.7829 13.95 3.3043C13.95 3.8257 14.3529 4.24839 14.85 4.24839C15.3471 4.24839 15.75 3.8257 15.75 3.3043C15.75 2.7829 15.3471 2.36022 14.85 2.36022ZM3.15 0.944087C4.39264 0.944087 5.4 2.00079 5.4 3.3043C5.4 4.60781 4.39264 5.66452 3.15 5.66452C1.90736 5.66452 0.9 4.60781 0.9 3.3043C0.9 2.00079 1.90736 0.944087 3.15 0.944087ZM3.15 2.36022C2.65295 2.36022 2.25 2.7829 2.25 3.3043C2.25 3.8257 2.65295 4.24839 3.15 4.24839C3.64705 4.24839 4.05 3.8257 4.05 3.3043C4.05 2.7829 3.64705 2.36022 3.15 2.36022ZM0.675 13.2172C0.302211 13.2172 0 13.5342 0 13.9253V14.3973C0 16.3526 1.51104 17.9376 3.375 17.9376H14.625C16.489 17.9376 18 16.3526 18 14.3973V13.9253C18 13.5342 17.6978 13.2172 17.325 13.2172H0.675ZM3.375 16.5215C2.33267 16.5215 1.47428 15.6954 1.36236 14.6333H16.6377C16.5257 15.6954 15.6673 16.5215 14.625 16.5215H3.375Z" fill="#212121"/>
</svg>
